<?xml version="1.0" encoding="UTF-8"?><svg id="Layer_2" xmlns="http://www.w3.org/2000/svg" viewBox="0 0 1308.4 698.09"><defs><style>.cls-1{fill:#fff;}</style></defs><g id="Layer_1-2"><path class="cls-1" d="M33.76,626.2H0v-161.33h66.07c37.12,0,58.36,19.57,58.36,51.43,0,20.68-10.73,38.57-29.29,45.84l33.99,64.06h-38.24l-30.07-59.03h-27.06v59.03ZM33.76,542.68h29.07c16.99,0,26.94-9.73,26.94-25.71s-10.51-25.71-27.28-25.71h-28.73v51.43Z"/><path class="cls-1" d="M252,589.53c-3.58,23.48-25.04,39.24-54.67,39.24-36.89,0-59.03-23.59-59.03-61.94s22.36-63.06,57.8-63.06,56.91,23.59,56.91,60.04v9.95h-82.62v2.01c0,17.11,10.84,28.84,27.5,28.84,11.96,0,21.13-5.93,24.15-15.09h29.96ZM170.72,553.75h50.87c-.67-15.32-10.62-25.83-25.16-25.83s-24.6,10.84-25.71,25.83Z"/><path class="cls-1" d="M265.19,591.76c0-21.8,16.77-34.43,46.62-36.22l30.19-1.79v-7.94c0-11.18-7.83-17.66-20.12-17.66s-19.9,6.04-21.47,14.87h-29.85c1.23-23.25,21.02-39.24,52.77-39.24s50.76,15.88,50.76,40.02v82.4h-31.53v-18.34h-.67c-6.71,12.75-21.58,20.24-36.56,20.24-22.81,0-40.14-14.76-40.14-36.34ZM342,582.26v-8.72l-25.27,1.57c-12.19.89-19.12,6.37-19.12,14.87,0,8.94,7.38,14.53,18.45,14.53,14.2,0,25.94-9.28,25.94-22.25Z"/><path class="cls-1" d="M395.89,464.87h32.65v161.33h-32.65v-161.33Z"/><path class="cls-1" d="M479.85,580.25c1.57,13.3,15.43,22.02,33.32,22.02s30.3-8.61,30.3-20.46c0-10.51-7.71-16.32-27.17-20.68l-21.02-4.58c-29.74-6.37-44.38-21.47-44.38-45.06,0-29.74,25.71-49.42,61.71-49.42s61.15,19.34,61.71,48.52h-31.64c-1.12-13.64-13.08-21.91-29.96-21.91s-27.84,7.94-27.84,19.9c0,9.95,7.83,15.54,26.38,19.79l19.57,4.14c32.31,6.93,46.4,20.79,46.4,45.39,0,31.3-25.38,51.09-65.4,51.09s-63.5-18.45-64.51-48.74h32.53Z"/><path class="cls-1" d="M704.45,589.53c-3.58,23.48-25.04,39.24-54.67,39.24-36.89,0-59.03-23.59-59.03-61.94s22.36-63.06,57.8-63.06,56.91,23.59,56.91,60.04v9.95h-82.62v2.01c0,17.11,10.84,28.84,27.5,28.84,11.96,0,21.13-5.93,24.15-15.09h29.96ZM623.18,553.75h50.87c-.67-15.32-10.62-25.83-25.16-25.83s-24.6,10.84-25.71,25.83Z"/><path class="cls-1" d="M769.19,584.61l-22.47,41.59h-34.32l37.56-59.7-37.34-60.15h36.78l21.58,40.47h.67l21.24-40.47h35.55l-37.45,59.25,37.12,60.6h-35.44l-22.81-41.59h-.67Z"/><path class="cls-1" d="M835.82,545.48c0-51.99,29.63-83.4,76.36-83.4,38.79,0,68.31,24.6,70.88,60.71h-32.87c-3.13-19.79-18.34-32.76-38.01-32.76-25.49,0-41.93,21.35-41.93,55.34s16.21,55.68,42.04,55.68c20.01,0,34.43-11.74,38.01-30.86h32.87c-3.8,36-31.42,58.81-70.99,58.81-46.96,0-76.36-31.42-76.36-83.51Z"/><path class="cls-1" d="M1001.96,464.87h32.65v161.33h-32.65v-161.33Z"/><path class="cls-1" d="M1167.31,626.2h-31.53v-21.58h-.67c-5.93,15.09-17.78,23.81-35.89,23.81-25.94,0-43.15-16.88-43.15-44.83v-77.25h32.65v70.43c0,15.99,7.94,24.48,22.36,24.48s23.59-10.4,23.59-26.27v-68.65h32.65v119.85Z"/><path class="cls-1" d="M1222.2,605.62h-.67v20.57h-32.2v-161.33h32.65v62.27h.67c6.6-14.2,19.9-22.7,37.01-22.7,30.19,0,48.74,23.14,48.74,61.83s-18.45,61.83-48.63,61.83c-17.55,0-30.97-8.5-37.56-22.47ZM1221.87,566.27c0,21.69,10.73,35.55,26.61,35.55s26.5-13.64,26.5-35.55-10.29-35.66-26.5-35.66-26.61,14.2-26.61,35.66Z"/><rect class="cls-1" y="642.32" width="1308.4" height="55.77"/><path class="cls-1" d="M1115.62,1.23c-12.58.23-27.69,6.77-29.92,8.57-2.76,2.19-11.74,8.59-16.72,14.3-2.97,3.38-6.95,11.54-9.72,17.98-3.31,9.68-6.22,19.49-7.19,28.26-1.15,10.39-1.33,21.95-.39,30.13,1.1,8.75,2.79,17.25,4.07,25.77,1.16,7.67,2.12,15.36,1.34,23.1,1.75-7.58,1.75-15.57,1.54-23.38-.09-3.78-.25-7.58-.42-11.36.32,1.45.65,2.92.97,4.37,1.75,8.07,3.3,16.17,3.8,24.44.51-8.27-.05-16.63-.81-24.92-.14-1.52-.28-3.01-.44-4.53.39.69.74,1.38,1.13,2.05.39,1.54.78,3.04,1.2,4.56-.18,9.07-.14,18.17.4,27.2-.25.14-.51.25-.74.4-5.81,3.45-12.12,8.4-14.6,11.31-2.49,2.9-7.9,6.38-8.59,15.64-.69,9.23.28,13.08,1.93,17.09,1.66,4.01,2.35,3.2,1.8,8.45-.55,5.23-4.12,16.56-7.67,25.15-3.54,8.57-15.08,36.69-15.08,36.69l-3.23-2.3s-16.21-55.81-21.56-71.17c-5.37-15.38-14.91-34.94-19.67-40.28-4.79-5.32-16.17-9.74-17.28-10.29-1.11-.55-1.45-.74-7.35-2.03-5.87-1.29-15.82,4.4-18.58,7.16-2.74,2.77-9.72,9.75-12.12,11.77-2.39,2.03-12.53,23.04-16.1,28.15-3.54,5.11-12.66,19.32-12.66,19.32,0,0-3.11-4.68-18.89-13.57-15.8-8.89-25.36-5.52-27.8-3.29-2.44,2.21-12.46,9.33-17.58,14.88-5.11,5.55-10.22,9.99-13.56,15.11-3.34,5.14-12.05,15.59-18.27,21.81-6.24,6.24-13.77,14.46-19.32,21.35-5.58,6.89-20.25,26-28.26,35.79-8.02,9.79-13.13,15.16-17.81,18.93-4.68,3.78-30.03,22.02-35.38,26.26-5.34,4.22-17.99,11.77-23.33,16.42-5.32,4.68-14.23,13.15-18.45,16.26-4.23,3.11-8.13,5.18-14.92,9.4-6.82,4.24-12.18,3.87-13.45,5.34-1.29,1.45-5.51,4.22-1.64,6.06,3.85,1.84,16.15,1.66,21.31,1.29,5.14-.37,12.32.74,15.27.19,2.95-.55,5.52-1.29,15.08-4.79,9.56-3.48,20.36-6.06,24.6-6.24,4.24-.19,14.35,2.74,22.43,2.02,8.08-.74,12.3-2.76,14.14-8.11,1.85-5.32,0-9.9,1.29-14.88,1.29-4.95,1.68-6.24,8.47-13.96,6.8-7.72,44.29-31.26,56.8-40.63,12.48-9.37,23.73-17.64,33.47-27.94,9.74-10.29,14.69-20.96,15.98-24.46.83-2.25,1.01-2.65,1.04-2.67l7.97,7.12s-5.46,11.03-13.01,22.39c-7.58,11.33-15.57,22.25-18.24,26.05-2.67,3.78-3.47,5.41-8.08,10.37-4.58,4.98-11.58,17.66-14.35,21.9-2.74,4.22-4.95,11.54-8.61,17.8-3.69,6.24-7.37,11.38-12.32,16.9-4.98,5.51-11.24,12.88-12.32,15.09-1.1,2.19-.94,3.48.53,4.77,1.47,1.29,8.11.21,9.03.21s2.77-1.68,7.53-2.97c4.79-1.29,12.66-3.3,16.72-5.87,4.05-2.56,3.84-2.21,6.06-6.45,2.21-4.22,3.34-6.98,7.74-10.64,4.42-3.69,12.69-8.27,19.88-9.16,7.16-.93,23.5-2.4,27.36-8.11,3.84-5.69,3.48-11.22,2.56-13.24-.93-2.03-4.93-10.85-4.93-14.14s1.29-7.19,2.21-8.29c.92-1.11,6.61-7.32,10.85-11.2,4.21-3.87,6.79-6.26,6.79-6.26,0,0,7.72,16.74,14.9,26.49,7.16,9.74,13.22,17.46,25.54,33.08,12.3,15.61,21.47,26.46,29.37,31.8,7.92,5.32,12.69,5.71,13.61,5.71s78.15.34,80.36-.39c2.21-.74,8.06-3.84,10.46-6.95,2.39-3.14,10.32-17.85,14.19-28.7,3.84-10.85,32.25-68.38,41.55-82.13,9.3-13.75,24.25-34.94,24.25-34.94,0,0,3.64,7.05,4.45,12.51s2,8.08,2,8.08c0,0-2.19,4.47-1.77,13.77.4,9.28,2.19,15.96,2.61,23.03.39,7.1,1.01,45.12.8,53.8-.18,8.71,3.48,20.8,6.15,26.72,1.87,4.12,2.74,6.08,5.02,7.3,2.39,3.31,5.6,3.82,5.6,3.82,0,0,18.56.83,21.42.09,2.85-.71,3.94-1.06,5.73-.35,1.8.72,14.68,1.27,15.48.21.81-1.08.78-2.19.78-2.19,0,0,3.78-.75,8.08-.5,4.31.27,2.19,1.06,8.38,1.86,6.2.81,13.73,1.08,14-.28.25-1.33-2.19-1.86-5.41-3.76-3.23-1.89-12.13-7-14.03-7.81-1.89-.83-14,0-18.03,0s-4.95-1.33-10.62-2.14c-5.64-.81-8.84-1.08-12.35-2.42-.3-.12-.74-.23-1.17-.35.97-4.56,2.42-13.47,3.11-28.14,1.11-23.17,1.69-63.43,1.69-67.09s-1.31-22.94,2.71-39.62c4.03-16.7,11.56-46.3,14.26-62.97,2.69-16.7,1.04-22.43-.06-31.09-1.11-8.68-16.72-35.81-16.72-35.81,0,0-.05-1.31-3.8-1.82-3.77-.51-4.17-.51-4.17-.51,0,0,2.63-16.19,2.88-25.22.25-9.05-5.57-29.07-16.79-50.19-11.22-21.14-25.2-26.28-38.25-30.33-2.45-.76-5.23-1.06-8.13-1.01h0ZM1069.99,113.18c.55,1.68,1.08,3.38,1.59,5.04,0,1.66-.07,3.34-.12,4.98-.02-.18,0-.37-.02-.57-.37-3.18-.9-6.34-1.45-9.45h0ZM1076.56,116.13c.06,3.89-.05,7.76-.46,11.63-.05.52-.09,1.06-.17,1.59.07-2.21-.02-4.42-.23-6.61v-.07c.32-2.19.6-4.35.86-6.54h0ZM1081.69,122.55c.25,1.56.41,3.13.44,4.7-.51,1.61-1.01,3.24-1.5,4.91.55-3.18.85-6.38,1.06-9.6h0ZM1067.32,124.1c.92,1.98,1.68,4.03,2.23,6.14.32,2.21.48,4.42.48,6.66-.02,3.07-.48,6.17-1.56,9.1-1.43.55-2.77,1.13-3.8,1.66.46-6.38,1.17-12.76,2.03-19.1.55,1.57,1.17,3.09,1.82,4.61-.57-2.33-1.08-4.63-1.52-6.98.09-.69.21-1.38.32-2.09h0ZM1079.66,128.77c.09,2.56.09,5.12-.07,7.69-.41,1.93-.71,3.89-.83,5.87-1.27.42-2.49.78-3.85,1.24.05-.14.09-.25.12-.39,1.47-4.72,3.41-9.35,4.63-14.42h0ZM1074.41,130.54c.3,2.61.25,5.21-.25,7.79-.32,1.47-.64,2.95-.9,4.42-.09.51-.16.99-.23,1.49-.67.24-1.31.47-1.96.7,1.36-4.72,2.46-9.52,3.34-14.4h0ZM1087.72,133.43c-.18,3.24-.37,6.31-.37,6.31l-2.12.62c.85-2.28,1.66-4.6,2.49-6.93h0ZM1083.71,136.39c-.39,1.57-.78,3.18-1.17,4.77-.28.09-.62.18-.92.28,0-.02.02-.05.02-.07.69-1.63,1.4-3.29,2.07-4.98h0ZM1080.79,136.86c-.29,1.29-.62,2.6-.92,3.91-.11.44-.18.85-.28,1.29-.28.09-.46.14-.74.23.48-1.89,1.16-3.69,1.93-5.43h0ZM1069.65,144.55c-.07.35-.14.67-.21,1.01-.12.05-.21.12-.35.16.18-.39.37-.78.55-1.17h0Z"/><rect class="cls-1" y="392.98" width="1308.4" height="55.77"/><path class="cls-1" d="M201.4,11.33c3.09-2.55,5.11-4.71,7.72-6.93,4.56-3.87,23.52-5.34,29.56-3.81,24.65,6.23,35.47,25.93,30.84,50.48-.45,2.41-3.78,9.01-3.51,10.09s2.42,1.04,2.69,2.07c1.47,5.51-3.65,11.64-5.26,16.55-1.86,5.67-2.83,11.67-4.57,17.4-2.17,7.16-6.71,8.15,4.79,9.34,18.07,1.86,32.54-3.49,49.41-1.81,8.79.88,18.37,7.27,26.53,8.26,8.37,1.01,21.98-.81,31.19-.99,3.26-.06,6.4,1.03,10.05,1.01,17.13-.12,26.97-4.35,44.08,4.36,10.22,5.2,20.52,28.72,20.5,39.99,0,4.81-1.88,11.6-1.98,16.47-.15,7.65,17.38,37.28,21.56,47.17,4.85,11.49,7.42,23.82,11.95,34.74,2.1,5.06,5.6,9.22,7.31,14.66,3.58,11.45,4.41,14.35,9.47,25.31,2.08,4.51,4.2,12.04,6.35,15.62,1.89,3.16,5.68,4.12,7.4,7.25,1.5,2.73,2.01,10.1,3.5,11.38,2.22,1.91,16.07,2.9,20.92,4.49,11.53,3.77,19.23,12.05,12.35,24.24,10.49,5.43,1.34,10.28-6.42,6,.95,1.54,1.05,4.83,1.74,5.95,2.25,3.63,18.7,17.93,22.66,20.45,8.21,5.22,37.9,7.7,33.81,21.23-1.91,6.3-13.65,7.78-19.32,8.2-10.48.78-27.77.25-38.22-1.12-10.66-1.4-23.17-7.42-34.31-9.62-5.4-1.07-12.3-1.27-17.85-2.29-8.6-1.58-21.68-1.92-21.84-13.04-.03-1.87,2.26-5.48-.37-5.04-5.01.83-16.39,9.08-22.1,11.78-15.13,7.16-35.78,13.61-52.28,16.38-5.01.84-11.55,1.29-16.06-1.56-.91-.58-1.04-2.42-2.13-2.71-1.27-.34-3.14,1.01-5.16.69-1.65-.26-3.44-2.28-4.96-2.41-1.88-.16-4.66,2.43-8.4,1.94-3.52-.45-7.19-3.01-10.77-3.88-28.58-6.91-96.5-12.4-115.68-34.44-4.46-5.13-12.21-15.04-15.98-20.63-4.02-5.97-6.56-13.29-11.12-19.09-22.77-28.94-46.37-56.01-56.69-92.52-1.84-6.51-2.62-14.84-4.73-20.9-.44-1.27-.84-3.03-2.58-2.92-5.35,17.96-19.31,30.91-24,49.25-3.2,12.49-1.29,23.13-2.06,35.47-1.41,22.53-4.89,43.89-2.65,66.66.23,2.3.87,4.7,1.23,7,.51.88,6.7,3.16,8.22,3.68,3.6,1.22,21.01,5.36,22.48,6.8,2.15,2.12.29,5.81.15,8.27-.2,3.54,2.9,7.45-4.98,5.71-4.03-.89-3.81-4.86-5.25-5.73-4.29-2.59-4.23.34-1.83,3.67,2.9,4.01,8.02,5.24,6.43,11.77-.48,1.99-7.83,1.84-9.56.58-8.22,11.79-14.13-8.3-23.42-6.38-1.19,1.16,4.45,9.29-.62,10.88-7.75,2.43-7.95-10.19-12.7-10.91-5.87-.89-3.45,6.37-7.78,8.75l-4.4-.64c-.96-3.22.83-6.38.81-9.43s-1.5-5.4-.9-9.15c.67-4.1,4.61-4.85,4.6-10.12-.03-23.53-6.07-46.99-7.39-70.5-.92-16.27-2.1-38.5,1.88-53.94,7.77-30.21,17.59-60.52,24.39-90.95,4.55-20.36,2.55-27.64,18.11-44.14,9.13-9.68,18.78-10.71,30.11-15.66,3.06-1.34,5.41-3.92,8.54-5.19,13.85-5.61,28.17,1.27,37.07-15.11,3.99-7.34.56-7.62-2.2-12.82-3.67-6.92-9.19-15.89-4.7-23.57l7.63.96c-1.9-12.5-1.89-34.27,8.7-43.01ZM305.53,245.44c6.06-1.52,14.38-13.38,15.44-19.35,20.74-25.96,44.79-55.01,71.91-74.55,1.14-.82,2.54-.96,2.12-2.9-10.29.82-20.19,4.82-30.62,5.52-5.67.38-13.56.3-19.25-.05-12.65-.78-30.25-8.22-40.77.45-4.9,4.04-20.15,28.38-22.14,34.61-1.23,3.84-4.29,22.9-4.3,26.85,0,1.33,6.18,23.6,7.04,25.71.47,1.17,5.62,8.51,6.14,8.49.83-.51,1.05-1.9,1.7-2.39,5.04-3.82,7.79-1.16,12.72-2.39ZM401.22,349.84c3.77-.07,5.6-1.89,9.82-1.71,3.01.13,8.18,2.82,9.01,2.67,2.69-.49,2.22-5.25,3.58-6.95,1.62-2.01,9.42-5.16,12.18-5.66,2.14-.39,7.96.87,8.53-1.52.51-2.13-4.31-12.66-5.16-15.74-1.51-5.46-1.71-11.65-4.16-16.9-2.65-5.69-9.2-13.14-12.73-19.31-7.7-13.46-12.92-28.26-20.45-41.8-1.42-.34-1.89,1.22-2.46,2.1-5.28,8.12-7.91,18.66-12,27.36-10.12,21.5-26.82,40.81-40.82,59.79,1.34,2.69,4.17,1.83,6.25,2.81,2.65,1.25,4.73,3.35,7.91,3.99,6.27,1.27,12.83-.88,18.3,1.92l1.35-.48c.54-.37.63-1.82,1.08-2.1,5.98-3.71,13.58,11,19.76,11.52Z"/></g></svg>